HIERARCHY
ROOT Hip
{
	OFFSET	0.0000	0.0000	0.0000
	CHANNELS 6 Xposition Yposition Zposition Xrotation Yrotation Zrotation
	JOINT LowerSpine
	{
		OFFSET	0.0000	9.2812	-5.5247
		CHANNELS 3 Xrotation Yrotation Zrotation
		JOINT MiddleSpine
		{
			OFFSET	0.0000	8.4698	0.3983
			CHANNELS 3 Xrotation Yrotation Zrotation
			JOINT Chest
			{
				OFFSET	0.0000	10.4803	-2.0995
				CHANNELS 3 Xrotation Yrotation Zrotation
				JOINT Neck
				{
					OFFSET	0.0000	23.6171	-0.4420
					CHANNELS 3 Xrotation Yrotation Zrotation
					JOINT Head
					{
						OFFSET	-0.0001	13.3369	3.6276
						CHANNELS 3 Xrotation Yrotation Zrotation
						End Site
						{
							OFFSET	0.0001	18.6349	0.5563
						}
					}
				}
				JOINT LClavicle
				{
					OFFSET	2.1459	22.7917	7.0277
					CHANNELS 3 Xrotation Yrotation Zrotation
					JOINT LShoulder
					{
						OFFSET	12.5367	3.2691	-5.2898
						CHANNELS 3 Xrotation Yrotation Zrotation
						JOINT LForearm
						{
							OFFSET	29.5893	-0.1049	-0.2564
							CHANNELS 3 Xrotation Yrotation Zrotation
							JOINT LHand
							{
								OFFSET	24.6837	0.0716	-0.1479
								CHANNELS 3 Xrotation Yrotation Zrotation
								JOINT LFinger1
								{
									OFFSET	9.5667	0.8367	2.6571
									CHANNELS 3 Xrotation Yrotation Zrotation
									JOINT LFinger11
									{
										OFFSET	3.5784	-0.8726	0.6305
										CHANNELS 3 Xrotation Yrotation Zrotation
										JOINT LFinger12
										{
											OFFSET	2.4429	-0.5958	0.4306
											CHANNELS 3 Xrotation Yrotation Zrotation
											End Site
											{
												OFFSET	1.7384	-0.5189	0.2820
											}
										}
									}
								}
								JOINT LFinger2
								{
									OFFSET	9.7095	0.9662	0.2313
									CHANNELS 3 Xrotation Yrotation Zrotation
									JOINT LFinger21
									{
										OFFSET	4.4245	0.0123	-0.0261
										CHANNELS 3 Xrotation Yrotation Zrotation
										JOINT LFinger22
										{
											OFFSET	2.4525	0.0075	-0.0149
											CHANNELS 3 Xrotation Yrotation Zrotation
											End Site
											{
												OFFSET	2.2028	-0.1556	0.0030
											}
										}
									}
								}
								JOINT LFinger3
								{
									OFFSET	9.2018	0.6448	-2.1770
									CHANNELS 3 Xrotation Yrotation Zrotation
									JOINT LFinger31
									{
										OFFSET	4.0148	-0.2033	-0.2514
										CHANNELS 3 Xrotation Yrotation Zrotation
										JOINT LFinger32
										{
											OFFSET	2.2878	-0.1151	-0.1437
											CHANNELS 3 Xrotation Yrotation Zrotation
											End Site
											{
												OFFSET	2.0228	-0.2487	-0.0956
											}
										}
									}
								}
								JOINT LFinger4
								{
									OFFSET	8.5389	-0.6489	-3.7596
									CHANNELS 3 Xrotation Yrotation Zrotation
									JOINT LFinger41
									{
										OFFSET	2.4695	-0.5150	-0.6817
										CHANNELS 3 Xrotation Yrotation Zrotation
										JOINT LFinger42
										{
											OFFSET	1.8109	-0.3771	-0.5002
											CHANNELS 3 Xrotation Yrotation Zrotation
											End Site
											{
												OFFSET	1.6073	-0.4416	-0.3688
											}
										}
									}
								}
								JOINT LFinger0
								{
									OFFSET	1.9790	-1.4979	1.5003
									CHANNELS 3 Xrotation Yrotation Zrotation
									JOINT LFinger01
									{
										OFFSET	3.6846	-1.2100	2.7780
										CHANNELS 3 Xrotation Yrotation Zrotation
										JOINT LFinger02
										{
											OFFSET	2.4262	-0.8682	1.7480
											CHANNELS 3 Xrotation Yrotation Zrotation
											End Site
											{
												OFFSET	1.7842	-0.6142	1.2217
											}
										}
									}
								}
							}
						}
					}
				}
				JOINT RClavicle
				{
					OFFSET	-2.1459	22.7917	7.0277
					CHANNELS 3 Xrotation Yrotation Zrotation
					JOINT RShoulder
					{
						OFFSET	-12.5389	3.2697	-5.2907
						CHANNELS 3 Xrotation Yrotation Zrotation
						JOINT RForearm
						{
							OFFSET	-29.5893	-0.1049	-0.2564
							CHANNELS 3 Xrotation Yrotation Zrotation
							JOINT RHand
							{
								OFFSET	-24.6837	0.0716	-0.1479
								CHANNELS 3 Xrotation Yrotation Zrotation
								JOINT RFinger1
								{
									OFFSET	-9.5668	0.8368	2.6571
									CHANNELS 3 Xrotation Yrotation Zrotation
									JOINT RFinger11
									{
										OFFSET	-3.5784	-0.8726	0.6305
										CHANNELS 3 Xrotation Yrotation Zrotation
										JOINT RFinger12
										{
											OFFSET	-2.4429	-0.5960	0.4306
											CHANNELS 3 Xrotation Yrotation Zrotation
											End Site
											{
												OFFSET	-1.7384	-0.5189	0.2820
											}
										}
									}
								}
								JOINT RFinger2
								{
									OFFSET	-9.7095	0.9662	0.2314
									CHANNELS 3 Xrotation Yrotation Zrotation
									JOINT RFinger21
									{
										OFFSET	-4.4245	0.0124	-0.0261
										CHANNELS 3 Xrotation Yrotation Zrotation
										JOINT RFinger22
										{
											OFFSET	-2.4525	0.0075	-0.0150
											CHANNELS 3 Xrotation Yrotation Zrotation
											End Site
											{
												OFFSET	-2.2028	-0.1556	0.0030
											}
										}
									}
								}
								JOINT RFinger3
								{
									OFFSET	-9.2018	0.6449	-2.1770
									CHANNELS 3 Xrotation Yrotation Zrotation
									JOINT RFinger31
									{
										OFFSET	-4.0148	-0.2033	-0.2514
										CHANNELS 3 Xrotation Yrotation Zrotation
										JOINT RFinger32
										{
											OFFSET	-2.2879	-0.1151	-0.1437
											CHANNELS 3 Xrotation Yrotation Zrotation
											End Site
											{
												OFFSET	-2.0228	-0.2487	-0.0956
											}
										}
									}
								}
								JOINT RFinger4
								{
									OFFSET	-8.5389	-0.6489	-3.7596
									CHANNELS 3 Xrotation Yrotation Zrotation
									JOINT RFinger41
									{
										OFFSET	-2.4695	-0.5150	-0.6817
										CHANNELS 3 Xrotation Yrotation Zrotation
										JOINT RFinger42
										{
											OFFSET	-1.8109	-0.3770	-0.5002
											CHANNELS 3 Xrotation Yrotation Zrotation
											End Site
											{
												OFFSET	-1.6073	-0.4416	-0.3688
											}
										}
									}
								}
								JOINT RFinger0
								{
									OFFSET	-1.9790	-1.4978	1.5002
									CHANNELS 3 Xrotation Yrotation Zrotation
									JOINT RFinger01
									{
										OFFSET	-3.6846	-1.2102	2.7781
										CHANNELS 3 Xrotation Yrotation Zrotation
										JOINT RFinger02
										{
											OFFSET	-2.4262	-0.8681	1.7480
											CHANNELS 3 Xrotation Yrotation Zrotation
											End Site
											{
												OFFSET	-1.7842	-0.6142	1.2217
											}
										}
									}
								}
							}
						}
					}
				}
			}
		}
	}
	JOINT RThigh
	{
		OFFSET	-10.9736	4.1953	-0.9002
		CHANNELS 3 Xrotation Yrotation Zrotation
		JOINT RShin
		{
			OFFSET	-0.7945	-43.1846	0.0000
			CHANNELS 3 Xrotation Yrotation Zrotation
			JOINT RFoot
			{
				OFFSET	0.0000	-42.4047	0.0000
				CHANNELS 3 Xrotation Yrotation Zrotation
				JOINT RToe
				{
					OFFSET	0.0000	-4.6606	9.7460
					CHANNELS 3 Xrotation Yrotation Zrotation
					End Site
					{
						OFFSET	0.0000	0.0000	6.5382
					}
				}
			}
		}
	}
	JOINT LThigh
	{
		OFFSET	10.9735	4.1956	-0.9002
		CHANNELS 3 Xrotation Yrotation Zrotation
		JOINT LShin
		{
			OFFSET	0.7945	-43.1849	0.0000
			CHANNELS 3 Xrotation Yrotation Zrotation
			JOINT LFoot
			{
				OFFSET	0.0000	-42.4047	0.0000
				CHANNELS 3 Xrotation Yrotation Zrotation
				JOINT LToe
				{
					OFFSET	0.0000	-4.6607	9.7461
					CHANNELS 3 Xrotation Yrotation Zrotation
					End Site
					{
						OFFSET	0.0000	0.0000	6.5382
					}
				}
			}
		}
	}
}
MOTION
Frames:	8
Frame Time: 0.0333333000
	32.6460	79.9902	-14.1402	25.858900	-32.461830	19.204620	0.000000	0.000000	0.000000	-0.800024	-0.392362	0.388191	-3.010378	-1.206907	1.313247	15.692910	-0.087955	0.680370	10.373020	0.881634	14.418580	0.000000	0.000000	-12.276480	31.390750	-49.535060	-38.602690	0.054323	-17.989590	0.001716	0.000000	0.000000	0.000000	0.000000	0.000000	0.000000	0.000000	0.000000	0.000000	0.000000	0.000000	0.000000	0.000000	0.000000	0.000000	0.000000	0.000000	0.000000	0.000000	0.000000	0.000000	0.000000	0.000000	0.000000	0.000000	0.000000	0.000000	0.000000	0.000000	0.000000	0.000000	0.000000	0.000000	0.000000	0.000000	0.000000	0.000000	0.000000	0.000000	0.000000	0.000000	0.000000	0.000000	0.000000	0.000000	0.000000	0.000000	0.000000	0.000000	0.000000	12.398100	29.861000	28.695560	45.363930	0.106330	32.924060	-0.018118	0.000000	0.000000	0.000000	0.000000	0.000000	0.000000	0.000000	0.000000	0.000000	0.000000	0.000000	0.000000	0.000000	0.000000	0.000000	0.000000	0.000000	0.000000	0.000000	0.000000	0.000000	0.000000	0.000000	0.000000	0.000000	0.000000	0.000000	0.000000	0.000000	0.000000	0.000000	0.000000	0.000000	0.000000	0.000000	0.000000	0.000000	0.000000	0.000000	0.000000	0.000000	0.000000	0.000000	0.000000	0.000000	0.000000	0.000000	0.000000	-33.248620	-9.352735	5.576337	18.021920	-0.000011	0.000004	7.965163	-17.978840	-7.190492	-7.760052	0.000000	0.000000	-15.474580	0.252740	21.615390	7.271096	-0.000001	0.000000	-0.058361	-9.562218	-4.588809	-2.316281	0.000000	0.000000
	33.6022	80.0377	-12.7240	26.686690	-36.786960	22.054680	0.000000	0.000000	0.000000	-0.917198	-0.333263	0.416899	-3.382213	-1.034390	1.367552	14.248550	-0.186325	1.312859	10.957250	1.017939	15.355820	0.000000	0.000000	-12.361140	31.113970	-50.738820	-39.902970	0.053268	-17.412880	0.001271	0.000000	0.000000	0.000000	0.000000	0.000000	0.000000	0.000000	0.000000	0.000000	0.000000	0.000000	0.000000	0.000000	0.000000	0.000000	0.000000	0.000000	0.000000	0.000000	0.000000	0.000000	0.000000	0.000000	0.000000	0.000000	0.000000	0.000000	0.000000	0.000000	0.000000	0.000000	0.000000	0.000000	0.000000	0.000000	0.000000	0.000000	0.000000	0.000000	0.000000	0.000000	0.000000	0.000000	0.000000	0.000000	0.000000	0.000000	0.000000	0.000000	0.000000	12.474840	28.969560	27.665090	45.955620	0.105711	33.050090	-0.018530	0.000000	0.000000	0.000000	0.000000	0.000000	0.000000	0.000000	0.000000	0.000000	0.000000	0.000000	0.000000	0.000000	0.000000	0.000000	0.000000	0.000000	0.000000	0.000000	0.000000	0.000000	0.000000	0.000000	0.000000	0.000000	0.000000	0.000000	0.000000	0.000000	0.000000	0.000000	0.000000	0.000000	0.000000	0.000000	0.000000	0.000000	0.000000	0.000000	0.000000	0.000000	0.000000	0.000000	0.000000	0.000000	0.000000	0.000000	0.000000	-31.561860	-9.420216	4.845904	16.182870	-0.000011	0.000004	6.446089	-17.893170	-7.400493	-5.534571	0.000000	0.000000	-12.120590	1.147924	19.407630	6.582760	-0.000001	0.000000	-1.160031	-7.758603	-3.811906	-3.904617	0.000000	0.000000
	35.0562	80.2051	-11.0690	28.173030	-40.800240	26.227880	0.000000	0.000000	0.000000	-1.027188	-0.279579	0.446483	-3.740950	-0.877428	1.424661	12.202560	-0.365352	2.275717	11.315320	1.105354	15.905380	0.000000	0.000000	-12.428440	30.791100	-51.814470	-40.758950	0.054421	-18.184770	0.001900	0.000000	0.000000	0.000000	0.000000	0.000000	0.000000	0.000000	0.000000	0.000000	0.000000	0.000000	0.000000	0.000000	0.000000	0.000000	0.000000	0.000000	0.000000	0.000000	0.000000	0.000000	0.000000	0.000000	0.000000	0.000000	0.000000	0.000000	0.000000	0.000000	0.000000	0.000000	0.000000	0.000000	0.000000	0.000000	0.000000	0.000000	0.000000	0.000000	0.000000	0.000000	0.000000	0.000000	0.000000	0.000000	0.000000	0.000000	0.000000	0.000000	0.000000	12.544400	28.005360	26.376920	46.124950	0.106767	33.780520	-0.020110	0.000000	0.000000	0.000000	0.000000	0.000000	0.000000	0.000000	0.000000	0.000000	0.000000	0.000000	0.000000	0.000000	0.000000	0.000000	0.000000	0.000000	0.000000	0.000000	0.000000	0.000000	0.000000	0.000000	0.000000	0.000000	0.000000	0.000000	0.000000	0.000000	0.000000	0.000000	0.000000	0.000000	0.000000	0.000000	0.000000	0.000000	0.000000	0.000000	0.000000	0.000000	0.000000	0.000000	0.000000	0.000000	0.000000	0.000000	0.000000	-31.373210	-9.182199	2.451768	15.789860	-0.000011	0.000004	5.297020	-15.049720	-6.398345	-3.686421	0.000000	0.000000	-9.745345	1.740086	15.552690	6.931267	-0.000001	0.000000	-2.214133	-4.771651	-2.399795	-4.891835	0.000000	0.000000
	36.4678	80.3647	-9.3675	29.660830	-44.081090	30.583250	0.000000	0.000000	0.000000	-1.129066	-0.231095	0.477714	-4.077550	-0.741305	1.478203	9.761976	-0.631779	3.463390	11.466920	1.147715	16.198790	0.000000	0.000000	-12.473180	30.528870	-52.671350	-40.780940	0.059649	-20.246180	0.003459	0.000000	0.000000	0.000000	0.000000	0.000000	0.000000	0.000000	0.000000	0.000000	0.000000	0.000000	0.000000	0.000000	0.000000	0.000000	0.000000	0.000000	0.000000	0.000000	0.000000	0.000000	0.000000	0.000000	0.000000	0.000000	0.000000	0.000000	0.000000	0.000000	0.000000	0.000000	0.000000	0.000000	0.000000	0.000000	0.000000	0.000000	0.000000	0.000000	0.000000	0.000000	0.000000	0.000000	0.000000	0.000000	0.000000	0.000000	0.000000	0.000000	0.000000	12.605480	27.100960	24.940220	46.727100	0.110469	34.870480	-0.022249	0.000000	0.000000	0.000000	0.000000	0.000000	0.000000	0.000000	0.000000	0.000000	0.000000	0.000000	0.000000	0.000000	0.000000	0.000000	0.000000	0.000000	0.000000	0.000000	0.000000	0.000000	0.000000	0.000000	0.000000	0.000000	0.000000	0.000000	0.000000	0.000000	0.000000	0.000000	0.000000	0.000000	0.000000	0.000000	0.000000	0.000000	0.000000	0.000000	0.000000	0.000000	0.000000	0.000000	0.000000	0.000000	0.000000	0.000000	0.000000	-31.874640	-8.784478	-0.568671	16.374980	-0.000011	0.000004	4.244415	-11.830440	-5.138962	-2.376572	0.000000	0.000000	-8.135900	1.981994	11.231590	8.084904	-0.000001	0.000000	-3.140134	-1.795515	-0.916125	-5.481415	0.000000	0.000000
	37.3145	80.4640	-7.9323	30.580820	-46.492350	33.972570	0.000000	0.000000	0.000000	-1.221846	-0.187477	0.511412	-4.409098	-0.612174	1.526144	7.817247	-0.886546	4.433338	11.479900	1.159290	16.332140	0.000000	0.000000	-12.536330	30.310710	-53.418350	-40.102520	0.066620	-22.535760	0.005352	0.000000	0.000000	0.000000	0.000000	0.000000	0.000000	0.000000	0.000000	0.000000	0.000000	0.000000	0.000000	0.000000	0.000000	0.000000	0.000000	0.000000	0.000000	0.000000	0.000000	0.000000	0.000000	0.000000	0.000000	0.000000	0.000000	0.000000	0.000000	0.000000	0.000000	0.000000	0.000000	0.000000	0.000000	0.000000	0.000000	0.000000	0.000000	0.000000	0.000000	0.000000	0.000000	0.000000	0.000000	0.000000	0.000000	0.000000	0.000000	0.000000	0.000000	12.656660	26.291730	23.623560	48.094430	0.114272	35.428570	-0.023084	0.000000	0.000000	0.000000	0.000000	0.000000	0.000000	0.000000	0.000000	0.000000	0.000000	0.000000	0.000000	0.000000	0.000000	0.000000	0.000000	0.000000	0.000000	0.000000	0.000000	0.000000	0.000000	0.000000	0.000000	0.000000	0.000000	0.000000	0.000000	0.000000	0.000000	0.000000	0.000000	0.000000	0.000000	0.000000	0.000000	0.000000	0.000000	0.000000	0.000000	0.000000	0.000000	0.000000	0.000000	0.000000	0.000000	0.000000	0.000000	-32.355450	-8.441760	-3.205635	17.486040	-0.000011	0.000004	3.356194	-9.118779	-4.042678	-1.697519	0.000000	0.000000	-7.180011	1.966032	7.673441	9.890267	-0.000001	0.000000	-3.307853	0.188922	0.098341	-6.757576	0.000000	0.000000
	37.5803	80.5183	-6.8295	31.116370	-48.481490	36.406770	0.000000	0.000000	0.000000	-1.304516	-0.148294	0.548441	-4.756399	-0.463054	1.577343	6.731159	-1.044750	4.974611	11.420520	1.155639	16.399530	0.000000	0.000000	-12.548650	30.113620	-53.915280	-39.108120	0.070648	-24.052110	0.006876	0.000000	0.000000	0.000000	0.000000	0.000000	0.000000	0.000000	0.000000	0.000000	0.000000	0.000000	0.000000	0.000000	0.000000	0.000000	0.000000	0.000000	0.000000	0.000000	0.000000	0.000000	0.000000	0.000000	0.000000	0.000000	0.000000	0.000000	0.000000	0.000000	0.000000	0.000000	0.000000	0.000000	0.000000	0.000000	0.000000	0.000000	0.000000	0.000000	0.000000	0.000000	0.000000	0.000000	0.000000	0.000000	0.000000	0.000000	0.000000	0.000000	0.000000	12.695580	25.459840	22.585390	49.828600	0.115355	35.361580	-0.022709	0.000000	0.000000	0.000000	0.000000	0.000000	0.000000	0.000000	0.000000	0.000000	0.000000	0.000000	0.000000	0.000000	0.000000	0.000000	0.000000	0.000000	0.000000	0.000000	0.000000	0.000000	0.000000	0.000000	0.000000	0.000000	0.000000	0.000000	0.000000	0.000000	0.000000	0.000000	0.000000	0.000000	0.000000	0.000000	0.000000	0.000000	0.000000	0.000000	0.000000	0.000000	0.000000	0.000000	0.000000	0.000000	0.000000	0.000000	0.000000	-32.538500	-8.287763	-5.114022	18.616870	-0.000011	0.000004	2.835518	-6.909357	-3.104916	-1.620459	0.000000	0.000000	-6.512396	1.884486	5.129868	11.855040	-0.000001	0.000000	-2.603995	1.144339	0.574172	-9.009633	0.000000	0.000000
	37.5949	80.4838	-6.0096	31.595630	-50.316880	38.308240	0.000000	0.000000	0.000000	-1.376065	-0.113033	0.589696	-5.093626	-0.310772	1.637885	6.096561	-1.135459	5.260992	11.263610	1.132871	16.398890	0.000000	0.000000	-12.562960	29.936830	-54.089310	-37.925500	0.071742	-24.781700	0.007785	0.000000	0.000000	0.000000	0.000000	0.000000	0.000000	0.000000	0.000000	0.000000	0.000000	0.000000	0.000000	0.000000	0.000000	0.000000	0.000000	0.000000	0.000000	0.000000	0.000000	0.000000	0.000000	0.000000	0.000000	0.000000	0.000000	0.000000	0.000000	0.000000	0.000000	0.000000	0.000000	0.000000	0.000000	0.000000	0.000000	0.000000	0.000000	0.000000	0.000000	0.000000	0.000000	0.000000	0.000000	0.000000	0.000000	0.000000	0.000000	0.000000	0.000000	12.719280	24.443980	21.939910	51.461100	0.112758	34.744120	-0.021539	0.000000	0.000000	0.000000	0.000000	0.000000	0.000000	0.000000	0.000000	0.000000	0.000000	0.000000	0.000000	0.000000	0.000000	0.000000	0.000000	0.000000	0.000000	0.000000	0.000000	0.000000	0.000000	0.000000	0.000000	0.000000	0.000000	0.000000	0.000000	0.000000	0.000000	0.000000	0.000000	0.000000	0.000000	0.000000	0.000000	0.000000	0.000000	0.000000	0.000000	0.000000	0.000000	0.000000	0.000000	0.000000	0.000000	0.000000	0.000000	-32.574290	-8.277123	-6.423550	19.644400	-0.000011	0.000004	2.428392	-5.181252	-2.342319	-1.728571	0.000000	0.000000	-6.107148	1.835901	3.342627	13.933800	-0.000001	0.000000	-1.873631	1.675432	0.836522	-11.315090	0.000000	0.000000
	37.5833	80.3471	-5.5179	31.977600	-51.770800	39.698320	0.000000	0.000000	0.000000	-1.435521	-0.081123	0.636097	-5.368173	-0.210372	1.697112	5.518619	-1.220402	5.518337	11.024940	1.093626	16.329130	0.000000	0.000000	-12.555410	29.732430	-54.153580	-36.542920	0.074049	-25.403370	0.008415	0.000000	0.000000	0.000000	0.000000	0.000000	0.000000	0.000000	0.000000	0.000000	0.000000	0.000000	0.000000	0.000000	0.000000	0.000000	0.000000	0.000000	0.000000	0.000000	0.000000	0.000000	0.000000	0.000000	0.000000	0.000000	0.000000	0.000000	0.000000	0.000000	0.000000	0.000000	0.000000	0.000000	0.000000	0.000000	0.000000	0.000000	0.000000	0.000000	0.000000	0.000000	0.000000	0.000000	0.000000	0.000000	0.000000	0.000000	0.000000	0.000000	0.000000	12.740070	23.221970	21.575460	52.831470	0.107507	33.664890	-0.019683	0.000000	0.000000	0.000000	0.000000	0.000000	0.000000	0.000000	0.000000	0.000000	0.000000	0.000000	0.000000	0.000000	0.000000	0.000000	0.000000	0.000000	0.000000	0.000000	0.000000	0.000000	0.000000	0.000000	0.000000	0.000000	0.000000	0.000000	0.000000	0.000000	0.000000	0.000000	0.000000	0.000000	0.000000	0.000000	0.000000	0.000000	0.000000	0.000000	0.000000	0.000000	0.000000	0.000000	0.000000	0.000000	0.000000	0.000000	0.000000	-32.699360	-8.361132	-7.284626	20.639050	-0.000011	0.000004	2.030072	-4.031449	-1.841098	-1.847134	0.000000	0.000000	-6.402828	1.813089	2.227203	16.555440	0.000000	0.000000	-1.568301	2.175361	1.077248	-13.058480	0.000000	0.000000
